:SAMPLES-PER-SECOND 24
:FULLY-SPECIFIED
:DEGREES
491
root  1.87731 38.1603 17.161 7.17517 37.6398 0.549377
RightUpLeg  -28.0031 -6.31265 -13.0829
RightLeg  5.2429 -11.2465 -3.39472
RightFoot  -4.26902 -0.0347311 0.0927822
RightToes  -2.08645e-008 3.77894e-005 6.81332e-007
Spine  -0.171059 -3.52516 -12.9311
Spine1  4.8805 -5.14115 10.0192
HEad  -31.6584 -8.72912 13.2283
LeftShoulder1  7.96851 -13.8285 -39.7823
LeftArm  7.80524 21.0368 -16.7227
LeftForeArm  134.826 -76.8584 -131.474
LeftHand  -0.514601 -1.64318 8.66915
RightShoulder  3.9867 6.58501 33.6306
RightArm  3.07146 -28.4417 28.62
RightForeArm  96.4198 80.4846 81.655
RightHand  0.0072444 9.4442 -0.344262
LeftUpLeg  3.85964 5.43333 4.16849
LeftLeg  15.9275 16.2601 4.90587
LeftFoot  -20.1639 -1.1798 -16.7489
LeftToes  1.24767e-006 1.47042e-008 1.32732e-009
492
root  1.81441 37.7436 18.3464 7.73633 37.0461 1.84424
RightUpLeg  -28.4669 -8.11489 -13.2599
RightLeg  0.404105 -10.7597 -2.7401
RightFoot  -5.04511 -0.0212628 -0.244494
RightToes  -2.08645e-008 3.77894e-005 6.81332e-007
Spine  -0.229926 -4.21738 -13.6909
Spine1  5.06038 -5.83547 10.4807
HEad  -31.5777 -8.60234 12.5269
LeftShoulder1  8.20033 -14.0121 -40.5784
LeftArm  9.16644 13.9297 -16.9303
LeftForeArm  131.402 -77.4777 -128.039
LeftHand  -0.538564 -1.57052 9.15355
RightShoulder  4.0139 6.59023 33.8782
RightArm  -0.113072 -29.8614 27.9794
RightForeArm  96.0245 80.4548 82.1674
RightHand  -0.177684 9.26003 -1.7953
LeftUpLeg  5.34732 5.91669 4.53111
LeftLeg  16.8173 15.4205 4.94911
LeftFoot  -21.3371 -1.53597 -18.8521
LeftToes  1.24767e-006 1.47042e-008 1.32732e-009
493
root  1.81536 37.3626 19.8208 7.99719 36.5491 2.45343
RightUpLeg  -29.2908 -8.27232 -13.612
RightLeg  0.000890094 -11.2121 -2.84685
RightFoot  -6.35519 -0.0102642 -0.755603
RightToes  -2.08645e-008 3.77894e-005 6.81332e-007
Spine  -0.27215 -5.27936 -13.0126
Spine1  4.17424 -6.76687 10.4417
HEad  -30.4984 -8.19724 11.0756
LeftShoulder1  8.24539 -14.039 -40.7524
LeftArm  9.46906 7.96819 -19.4629
LeftForeArm  132.806 -77.2228 -129.502
LeftHand  -0.521825 -1.58176 8.86128
RightShoulder  4.01904 6.61176 33.8449
RightArm  -1.24913 -31.4226 26.9418
RightForeArm  103.249 80.503 90.2686
RightHand  -0.231957 8.92514 -2.26911
LeftUpLeg  7.57218 6.34896 5.76011
LeftLeg  16.7165 15.4488 4.94452
LeftFoot  -21.4281 -1.79008 -21.508
LeftToes  1.24767e-006 1.47042e-008 1.32732e-009
494
root  1.78048 37.124 21.5252 8.849 36.2201 3.31891
RightUpLeg  -30.8718 -8.11781 -14.155
RightLeg  3.74926 -13.2654 -3.57403
RightFoot  -5.24705 0.0143824 -0.953946
RightToes  -2.08645e-008 3.77894e-005 6.81332e-007
Spine  -0.38617 -6.40473 -13.7829
Spine1  2.95498 -8.33118 13.0202
HEad  -29.4142 -7.33437 9.20383
LeftShoulder1  8.21531 -14.0071 -40.6716
LeftArm  9.13997 2.99851 -23.3423
LeftForeArm  138.385 -76.343 -134.202
LeftHand  -0.518987 -1.70549 8.66998
RightShoulder  3.91555 6.51332 33.2043
RightArm  -0.71693 -32.4017 25.384
RightForeArm  116.834 80.1628 104.525
RightHand  -0.0913645 8.71461 -1.11723
LeftUpLeg  10.2586 6.40401 7.10149
LeftLeg  14.8356 15.5517 4.48471
LeftFoot  -18.7327 -1.40783 -23.1473
LeftToes  1.24767e-006 1.47042e-008 1.32732e-009
495
root  1.71439 37.0914 23.4075 9.52417 35.3738 3.46954
RightUpLeg  -34.0908 -7.81318 -13.7114
RightLeg  11.4635 -14.8116 -4.27715
RightFoot  -0.792915 0.122918 -1.38904
RightToes  -2.08645e-008 3.77894e-005 6.81332e-007
Spine  -1.14753 -7.26694 -13.3193
Spine1  2.45019 -9.75661 15.6985
HEad  -29.4987 -6.37357 7.62123
LeftShoulder1  8.367 -14.1251 -41.1848
LeftArm  9.19989 -1.61931 -26.3407
LeftForeArm  145.3 -75.0003 -139.787
LeftHand  -0.554446 -1.74672 9.19882
RightShoulder  3.80733 6.36583 32.6933
RightArm  -0.536089 -32.449 24.467
RightForeArm  124.567 79.683 112.651
RightHand  0.0133561 9.08055 -0.288279
LeftUpLeg  12.9154 7.09562 9.48944
LeftLeg  12.82 13.3353 3.43896
LeftFoot  -15.2898 -0.890199 -27.9348
LeftToes  1.24767e-006 1.47042e-008 1.32732e-009
496
root  1.61655 37.0949 25.4655 8.17847 33.3008 1.69806
RightUpLeg  -36.9279 -7.75716 -9.90342
RightLeg  19.6551 -11.408 -4.63946
RightFoot  3.63181 0.446021 -3.19886
RightToes  -2.08645e-008 3.77894e-005 6.81332e-007
Spine  -1.21288 -7.61599 -8.85073
Spine1  1.75696 -10.1403 15.2635
HEad  -30.2835 -4.93321 6.3227
LeftShoulder1  8.46467 -14.21 -41.4882
LeftArm  9.37584 -5.12381 -28.7247
LeftForeArm  149.924 -73.7269 -143.809
LeftHand  -0.557242 -1.74485 9.24431
RightShoulder  3.84349 6.41609 32.8617
RightArm  -0.338963 -30.4586 24.91
RightForeArm  116.85 80.0974 105.211
RightHand  -0.00614169 9.01656 -0.443655
LeftUpLeg  14.0047 8.62415 13.8202
LeftLeg  16.679 12.8415 4.6089
LeftFoot  -9.22852 0.707926 -33.9744
LeftToes  1.24767e-006 1.47042e-008 1.32732e-009
497
root  1.40509 37.0415 27.5234 5.58972 30.7204 -0.228943
RightUpLeg  -37.1116 -5.57697 -6.21424
RightLeg  26.07 -8.7656 -4.87437
RightFoot  4.86072 0.805481 -5.43678
RightToes  -2.08645e-008 3.77894e-005 6.81332e-007
Spine  1.37249 -7.68863 -4.56184
Spine1  -0.867142 -9.96615 14.6541
HEad  -30.0182 -2.89285 5.08555
LeftShoulder1  8.33852 -14.125 -41.0329
LeftArm  9.32751 -7.09763 -31.1148
LeftForeArm  151.363 -73.5181 -144.536
LeftHand  -0.50819 -2.20645 7.97328
RightShoulder  3.98679 6.65247 33.3691
RightArm  1.17039 -26.057 26.0077
RightForeArm  95.2833 80.3781 83.3829
RightHand  -0.100389 8.63001 -1.21668
LeftUpLeg  10.7987 6.52128 17.0235
LeftLeg  29.3474 14.3753 9.03815
LeftFoot  4.16156 3.99529 -29.8386
LeftToes  1.24767e-006 1.47042e-008 1.32732e-009
498
root  1.12909 36.9015 29.1589 3.30212 28.6309 -0.986389
RightUpLeg  -36.1584 -3.06812 -4.05803
RightLeg  31.3361 -8.80055 -5.98802
RightFoot  3.14473 0.805932 -6.15891
RightToes  -2.08645e-008 3.77894e-005 6.81332e-007
Spine  5.11267 -7.57458 -2.31197
Spine1  -3.35104 -9.68856 15.8499
HEad  -28.9825 -1.4633 3.92732
LeftShoulder1  8.21894 -14.0311 -40.6301
LeftArm  9.47078 -8.82627 -32.3025
LeftForeArm  149.711 -75.1228 -140.357
LeftHand  -0.466054 -3.30478 6.4783
RightShoulder  4.10944 6.83724 33.8507
RightArm  3.24359 -20.0979 27.5046
RightForeArm  75.8961 79.372 63.3187
RightHand  -0.198404 8.62329 -2.0257
LeftUpLeg  2.6423 1.88634 17.4304
LeftLeg  47.1354 8.07312 9.48701
LeftFoot  13.7643 4.20502 -19.2069
LeftToes  1.24767e-006 1.47042e-008 1.32732e-009
499
root  0.926 36.9886 30.5741 1.48267 25.9568 -0.561096
RightUpLeg  -33.8313 -1.03801 -2.78834
RightLeg  34.1619 -8.49714 -6.40955
RightFoot  0.125444 0.649453 -6.44763
RightToes  -2.08645e-008 3.77894e-005 6.81332e-007
Spine  6.48877 -6.66182 -0.141416
Spine1  -2.84161 -8.58904 14.5909
HEad  -28.4905 -1.35928 2.60955
LeftShoulder1  8.1722 -13.9901 -40.4817
LeftArm  9.60658 -10.2506 -31.6558
LeftForeArm  138.971 -78.2613 -126.404
LeftHand  -0.467305 -4.09312 5.99547
RightShoulder  4.19021 6.92555 34.2849
RightArm  5.37526 -12.5177 29.6898
RightForeArm  61.0185 77.2926 47.9388
RightHand  -0.236388 8.73987 -2.32521
LeftUpLeg  -7.51985 -0.0116229 16.0824
LeftLeg  65.9676 2.36653 6.52693
LeftFoot  11.5673 2.54364 -12.8618
LeftToes  1.24767e-006 1.47042e-008 1.32732e-009
